<?xml version="1.0" encoding="UTF-8"?><svg id="Layer_1" xmlns="http://www.w3.org/2000/svg" viewBox="0 0 700.71 140"><defs><style>.cls-1{fill:none;}.cls-2{fill:#0066da;}.cls-3{fill:#2684fc;}.cls-4{fill:#00832d;}.cls-5{fill:#00ac47;}.cls-6{fill:#e94235;}.cls-7{fill:#5f6368;}.cls-8{fill:#ffba00;}</style></defs><path class="cls-7" d="M515.47,105.8h-8.47V39.93h8.46l22.91,40.11h.37l22.91-40.11h8.46v65.87h-8.46v-39.1l.37-11.04h-.37l-20.61,36.16h-4.97l-20.61-36.16h-.37l.37,11.04v39.1h0ZM601.01,107.27c-6.62,0-12.08-2.27-16.38-6.81-4.29-4.54-6.44-10.27-6.44-17.2s2.08-12.59,6.26-17.16c4.17-4.57,9.51-6.85,16.01-6.85s12.01,2.16,15.96,6.49c3.96,4.32,5.93,10.38,5.93,18.17l-.09.92h-35.42c.12,4.42,1.59,7.97,4.42,10.67,2.82,2.7,6.19,4.05,10.12,4.05,5.4,0,9.63-2.7,12.7-8.1l7.54,3.68c-2.02,3.8-4.83,6.78-8.42,8.92s-7.65,3.22-12.19,3.22ZM587.48,77.83h25.85c-.25-3.13-1.52-5.72-3.82-7.77s-5.38-3.08-9.25-3.08c-3.19,0-5.93.98-8.23,2.94-2.29,1.96-3.81,4.6-4.55,7.91ZM648.92,107.27c-6.62,0-12.08-2.27-16.38-6.81-4.29-4.54-6.44-10.27-6.44-17.2s2.08-12.59,6.26-17.16c4.17-4.57,9.51-6.85,16.01-6.85s12.01,2.16,15.96,6.49c3.96,4.32,5.93,10.38,5.93,18.17l-.09.92h-35.42c.12,4.42,1.59,7.97,4.42,10.67,2.82,2.7,6.19,4.05,10.12,4.05,5.4,0,9.63-2.7,12.7-8.1l7.54,3.68c-2.02,3.8-4.83,6.78-8.42,8.92s-7.65,3.22-12.19,3.22ZM635.4,77.83h25.85c-.25-3.13-1.52-5.72-3.82-7.77s-5.38-3.08-9.25-3.08c-3.19,0-5.93.98-8.23,2.94s-3.82,4.6-4.55,7.91ZM692.98,106.53c-3.68,0-6.73-1.13-9.15-3.4s-3.67-5.43-3.73-9.48v-25.2h-7.91v-7.73h7.91v-13.8h8.46v13.8h11.04v7.73h-11.04v22.45c0,3.01.58,5.05,1.75,6.12,1.16,1.07,2.48,1.61,3.96,1.61.67,0,1.33-.08,1.98-.23.64-.15,1.24-.35,1.79-.6l2.67,7.54c-2.21.79-4.79,1.19-7.73,1.19ZM221.76,107.25c-20.51,0-37.76-16.71-37.76-37.24s17.24-37.24,37.76-37.24c11.35,0,19.42,4.45,25.5,10.26l-7.17,7.17c-4.36-4.09-10.26-7.27-18.33-7.27-14.97,0-26.68,12.08-26.68,27.07s11.71,27.06,26.68,27.06c9.71,0,15.25-3.9,18.79-7.45,2.9-2.91,4.81-7.08,5.54-12.81h-24.59v-10.15h34.48c.36,1.82.54,4,.54,6.36,0,7.63-2.09,17.08-8.8,23.8-6.54,6.81-14.89,10.44-25.96,10.44h0ZM308.16,83.27c0,13.81-10.79,23.98-24.02,23.98s-24.02-10.17-24.02-23.98,10.79-23.98,24.02-23.98c13.23,0,24.02,10.09,24.02,23.98ZM297.64,83.27c0-8.63-6.26-14.53-13.51-14.53s-13.51,5.9-13.51,14.53,6.26,14.53,13.51,14.53,13.51-5.99,13.51-14.53ZM360.45,83.27c0,13.81-10.79,23.98-24.02,23.98s-24.03-10.17-24.03-23.98,10.79-23.98,24.02-23.98,24.03,10.09,24.03,23.98h0ZM349.93,83.27c0-8.63-6.26-14.53-13.51-14.53s-13.51,5.9-13.51,14.53,6.26,14.53,13.51,14.53,13.51-5.99,13.51-14.53ZM410.47,60.75v43.05c0,17.71-10.44,24.98-22.78,24.98-11.62,0-18.61-7.81-21.24-14.17l9.17-3.81c1.63,3.91,5.63,8.54,12.07,8.54,7.9,0,12.8-4.9,12.8-14.08v-3.45h-.36c-2.36,2.91-6.9,5.45-12.62,5.45-11.98,0-22.96-10.44-22.96-23.89s10.98-24.07,22.96-24.07c5.72,0,10.26,2.54,12.62,5.36h.36v-3.91h9.98,0ZM401.21,83.36c0-8.45-5.63-14.62-12.8-14.62s-13.34,6.18-13.34,14.62,6.08,14.44,13.34,14.44,12.8-6.08,12.8-14.44ZM428.57,35.32v70.48h-10.53V35.32h10.53ZM469.38,91.17l8.17,5.45c-2.63,3.91-8.99,10.63-19.97,10.63-13.61,0-23.78-10.54-23.78-23.98,0-14.26,10.26-23.98,22.6-23.98s18.51,9.9,20.51,15.26l1.09,2.72-32.04,13.26c2.45,4.81,6.26,7.27,11.62,7.27s9.08-2.63,11.8-6.63ZM444.24,82.55l21.42-8.9c-1.18-3-4.72-5.09-8.89-5.09-5.36,0-12.8,4.72-12.53,13.99Z"/><path class="cls-4" d="M78.75,70l12.44,14.22,16.73,10.69,2.91-24.82-2.91-24.26-17.05,9.39-12.12,14.78Z"/><path class="cls-2" d="M6.56,92.6v21.15c0,4.83,3.92,8.75,8.75,8.75h21.15l4.38-15.98-4.38-13.92-14.51-4.38-15.39,4.38Z"/><path class="cls-6" d="M36.46,17.5L6.56,47.4l15.39,4.37,14.51-4.37,4.3-13.73-4.3-16.17Z"/><path class="cls-3" d="M6.56,47.4h29.9v45.21H6.56v-45.21Z"/><path class="cls-5" d="M127.02,30.16l-19.1,15.67v49.08l19.18,15.73c2.87,2.25,7.07.2,7.07-3.45V33.54c0-3.69-4.3-5.73-7.15-3.38Z"/><path class="cls-5" d="M78.75,70v22.6h-42.29v29.9h62.71c4.83,0,8.75-3.92,8.75-8.75v-18.84l-29.17-24.91Z"/><path class="cls-8" d="M99.17,17.5h-62.71v29.9h42.29v22.6l29.17-24.17v-19.58c0-4.83-3.92-8.75-8.75-8.75Z"/><path class="cls-1" d="M0,0h140v140H0V0Z"/></svg>