<svg xmlns="http://www.w3.org/2000/svg" viewBox="0 0 439.51 99.86"><title>teamviewer logo</title><polygon points="40.08 35.93 36.38 44.91 63.59 44.91 59.89 35.93 87.52 49.93 59.89 63.93 63.59 54.95 36.38 54.95 40.05 63.93 12.34 49.93 40.08 35.93" style="fill:#004680"/><path d="M386.25,462.07H298.09a5.87,5.87,0,0,0-5.85,5.85v88.16a5.87,5.87,0,0,0,5.85,5.85h88.16a5.87,5.87,0,0,0,5.85-5.85V467.92A5.87,5.87,0,0,0,386.25,462.07Zm-44.08,91.1A41.17,41.17,0,1,1,383.34,512a41.17,41.17,0,0,1-41.17,41.17Z" transform="translate(-292.24 -462.07)" style="fill:#004680"/><polygon points="133.22 70.06 142.13 70.06 142.13 35.6 154.42 35.6 154.42 28.74 120.93 28.74 120.93 35.6 133.22 35.6 133.22 70.06" style="fill:#004680"/><path d="M435,532.71H424.88V498.25H412.59v-8h34.66v8H435ZM426,531.54h7.75V497.08h12.29v-5.69H413.76v5.69H426Z" transform="translate(-292.24 -462.07)" style="fill:#004680"/><path d="M456.15,502.29a14.47,14.47,0,0,0-8.11,2.4c-4.86,3.37-6,9-6,13.66s1.09,8.51,3.71,11.26c3,3.14,7.71,3.6,10.17,3.6,4.23,0,8-1.14,10.11-3.37a9.66,9.66,0,0,0,2.74-6.29h-7.71a4.73,4.73,0,0,1-5,4c-5.89,0-5.89-5.83-5.89-7.71h19.37c.11-2.4.23-6.63-1.71-10.57C465.18,503.89,460.27,502.29,456.15,502.29Zm-5.71,12.23c.17-3.37,1.71-6.46,5.43-6.46,4.91,0,5,5.14,5,6.46Z" transform="translate(-292.24 -462.07)" style="fill:#004680"/><path d="M455.93,533.8c-2.6,0-7.42-.49-10.59-3.78-2.57-2.69-3.88-6.61-3.88-11.66,0-6.5,2.1-11.26,6.25-14.14a15.14,15.14,0,0,1,8.45-2.5,13,13,0,0,1,12.18,7.3c2.09,4.24,1.87,8.88,1.77,10.86l0,.56H450.75c.08,3,.84,6.54,5.29,6.54a4.14,4.14,0,0,0,4.46-3.56l.11-.44h8.81l-.05.63a10.26,10.26,0,0,1-2.9,6.64C464.32,532.5,460.48,533.8,455.93,533.8Zm.23-30.92a14,14,0,0,0-7.79,2.3c-3.81,2.64-5.74,7.08-5.74,13.17,0,4.81,1.16,8.36,3.55,10.85,2.87,3,7.34,3.42,9.75,3.42,4.24,0,7.77-1.16,9.69-3.19a8.92,8.92,0,0,0,2.52-5.3h-6.63a5.22,5.22,0,0,1-5.47,4c-4.29,0-6.47-2.79-6.47-8.3v-.59H469a20.12,20.12,0,0,0-1.68-9.73,11.84,11.84,0,0,0-11.13-6.65Zm5.33,12.23H449.82l0-.61c.22-4.39,2.47-7,6-7s5.61,2.57,5.61,7Zm-10.41-1.17h9.23c-.11-2.54-1-5.29-4.43-5.29C452.19,508.65,451.28,512,451.07,513.94Z" transform="translate(-292.24 -462.07)" style="fill:#004680"/><path d="M500.1,513.21c0-1.31-.06-4.74-2-7.09-2.86-3.31-7.89-3.71-10.29-3.71a15.09,15.09,0,0,0-8.74,2.34,8.08,8.08,0,0,0-3.26,6.8h8.29a4.35,4.35,0,0,1,.63-2.57,3.85,3.85,0,0,1,3.2-1.6,3.91,3.91,0,0,1,3.77,2.4,11.28,11.28,0,0,1,.4,3.83c-2.8,0-7.89,0-11.43,1.6-5.31,2.46-6.11,6.69-6.11,9a8.94,8.94,0,0,0,2.51,6.34c1.14,1.09,3,2.29,7.2,2.29,1.6,0,5.43,0,8.63-4.63a23.1,23.1,0,0,0,.29,3.94h7.66a34.87,34.87,0,0,1-.69-7.31Zm-9.6,12.46a4.79,4.79,0,0,1-3.6,1.66,4,4,0,0,1-4.11-3.84q0-.14,0-.27c0-3.43,3.89-5.14,9.31-4.69,0,3.09-.11,5.31-1.6,7.14Z" transform="translate(-292.24 -462.07)" style="fill:#004680"/><path d="M484.27,533.4c-4.51,0-6.5-1.4-7.6-2.45a9.45,9.45,0,0,1-2.7-6.77c0-2.43.84-6.91,6.45-9.5,3.42-1.54,8.19-1.65,11.09-1.65a9.19,9.19,0,0,0-.37-3.06,3.34,3.34,0,0,0-3.22-2,3.25,3.25,0,0,0-2.72,1.35,3.8,3.8,0,0,0-.53,2.24v.59h-9.48l0-.61a8.66,8.66,0,0,1,3.5-7.25,15.34,15.34,0,0,1,9.08-2.45c2.75,0,7.79.51,10.73,3.92,2.14,2.58,2.14,6.25,2.14,7.47l.06,11.6a34.19,34.19,0,0,0,.67,7.2l.15.71h-8.88l-.08-.49a22.43,22.43,0,0,1-.26-2.38A10,10,0,0,1,484.27,533.4Zm7.83-19.2c-2.71,0-7.76,0-11.19,1.55-5,2.32-5.77,6.28-5.77,8.44a8.4,8.4,0,0,0,2.34,5.93c1,1,2.74,2.11,6.79,2.11,1.53,0,5.12,0,8.15-4.38l1.07-1.54v1.88a22.86,22.86,0,0,0,.2,3.36h6.44a36.64,36.64,0,0,1-.56-6.73l-.06-11.6c0-3-.63-5.22-1.87-6.71-2.63-3-7.29-3.5-9.84-3.5a14.21,14.21,0,0,0-8.4,2.23,7.2,7.2,0,0,0-3,5.74h7.1a4.52,4.52,0,0,1,.71-2.3,4.67,4.67,0,0,1,8,.92,11.8,11.8,0,0,1,.43,4v.59Zm-5.2,13.72a4.55,4.55,0,0,1-4.7-4.4q0-.15,0-.3a4.43,4.43,0,0,1,1.47-3.34c1.7-1.56,4.71-2.25,8.48-1.93l.54,0v.54c0,3.15-.12,5.53-1.73,7.51v0a5.38,5.38,0,0,1-4,1.86Zm3.53-8.87c-2.64,0-4.77.6-6,1.7a3.24,3.24,0,0,0-1.09,2.47,3.38,3.38,0,0,0,3.23,3.53h.3a4.21,4.21,0,0,0,3.15-1.45c1.28-1.58,1.44-3.51,1.46-6.22-.37,0-.73,0-1.08,0Z" transform="translate(-292.24 -462.07)" style="fill:#004680"/><path d="M542.8,502.69c-3,0-6.86.74-9.26,5.37-.57-1.37-2.46-5.43-9.09-5.43-5.77,0-8,3.09-8.91,4.34l-.29-3.71h-8.17c.17,1.83.29,3.6.29,5.43v23.43h8.51v-17c0-1.94,0-6.51,5.31-6.51,4.69,0,4.74,4.11,4.74,6.34v17.14h8.51V517.67c0-4.29.11-9,5.2-9,4.4,0,4.86,3.43,4.86,6.51v17H553V515.84c0-2.51.11-6-1.43-8.51C551,506.18,548.62,502.69,542.8,502.69Z" transform="translate(-292.24 -462.07)" style="fill:#004680"/><path d="M553.61,532.71h-9.68V515.15c0-3.56-.73-5.93-4.27-5.93-4.28,0-4.62,3.66-4.62,8.44v15h-9.68V515c0-2.79-.32-5.76-4.16-5.76-4.16,0-4.73,2.85-4.73,5.93v17.56h-9.68v-24c0-1.61-.09-3.31-.28-5.37l-.06-.64h9.36l.21,2.77c1.34-1.48,3.84-3.4,8.45-3.4,3,0,7,.86,9.13,4.76,2-3.16,5-4.7,9.21-4.7,6,0,8.5,3.45,9.31,4.93,1.52,2.47,1.51,5.85,1.5,8.31Zm-8.51-1.17h7.35V515.35c0-2.45,0-5.51-1.34-7.72-.73-1.32-3-4.35-8.3-4.35-2.63,0-6.39.52-8.74,5.06l-.58,1.11-.48-1.16c-1.4-3.36-4.28-5.07-8.55-5.07-5.46,0-7.54,2.87-8.43,4.09l-.94,1.29-.37-4.75h-7c.16,1.82.23,3.37.23,4.84v22.84h7.35V515.15c0-1.94,0-7.1,5.9-7.1,5.33,0,5.33,4.86,5.33,6.93v16.56h7.35V517.67c0-4.06,0-9.61,5.79-9.61,5.44,0,5.44,5,5.44,7.1Z" transform="translate(-292.24 -462.07)" style="fill:#004680"/><polygon points="282.5 66.34 282.39 66.34 269.13 28.8 265.07 28.8 280.16 70.06 284.39 70.06 299.3 28.8 295.59 28.8 282.5 66.34" style="fill:#004680"/><path d="M577,532.71h-5l-.14-.38-15.37-42h5.31l.14.39,12.76,36.14,12.73-36.53h5Zm-4.23-1.17h3.41l14.49-40.09h-2.47L575.16,529h-.94l-.14-.39L561,491.45h-2.81Z" transform="translate(-292.24 -462.07)" style="fill:#004680"/><rect x="303.99" y="28.8" width="4" height="4.29" style="fill:#004680"/><path d="M600.82,495.74h-5.17v-5.46h5.17Zm-4-1.17h2.83v-3.12h-2.83Z" transform="translate(-292.24 -462.07)" style="fill:#004680"/><rect x="304.28" y="41.37" width="3.43" height="28.69" style="fill:#004680"/><path d="M600.53,532.71h-4.6V502.85h4.6Zm-3.43-1.17h2.26V504h-2.26Z" transform="translate(-292.24 -462.07)" style="fill:#004680"/><path d="M619.84,502.58c-8.51,0-12.8,7.43-12.8,15.2s4,15.2,12.57,15.2c6.91,0,11.2-3.14,13-10H629a8.55,8.55,0,0,1-8.29,6.86c-7,0-9.83-5.14-9.94-11.26h22.17C632.92,509.61,629.44,502.58,619.84,502.58Zm-9,12.86c.46-5,3.43-9.71,9-9.71,5.94,0,8.91,4.17,9.31,9.71Z" transform="translate(-292.24 -462.07)" style="fill:#004680"/><path d="M619.61,533.57c-9.09,0-13.16-7.93-13.16-15.79,0-7.6,4.19-15.79,13.39-15.79,8.82,0,13.67,5.89,13.67,16.59v.59H611.36c.18,3.45,1.55,10.09,9.34,10.09a7.93,7.93,0,0,0,7.71-6.4l.1-.46h4.83l-.19.73C631.33,530.15,626.91,533.57,619.61,533.57Zm.23-30.4c-8.39,0-12.22,7.58-12.22,14.62,0,10.79,6.46,14.62,12,14.62,6.52,0,10.42-2.81,12.2-8.83h-2.37a9.07,9.07,0,0,1-8.75,6.86c-6.55,0-10.39-4.31-10.53-11.83V518h22.18C632.21,511.09,629.89,503.17,619.84,503.17Zm10,12.86H610.23l.06-.64c.43-4.73,3.2-10.25,9.61-10.25,5.73,0,9.43,3.84,9.9,10.26Zm-18.32-1.17h17c-.6-5.44-3.73-8.54-8.67-8.54C614.56,506.31,612.09,510.77,611.52,514.85Z" transform="translate(-292.24 -462.07)" style="fill:#004680"/><polygon points="377.32 65.31 377.2 65.31 368.74 41.37 364.69 41.37 356 65.54 355.88 65.54 347.31 41.37 343.54 41.37 354.06 70.06 357.54 70.06 366.51 45.31 366.63 45.31 375.43 70.06 378.69 70.06 389.37 41.37 385.6 41.37 377.32 65.31" style="fill:#004680"/><path d="M671.34,532.71h-4.08L658.81,509l-8.61,23.76h-4.31l-10.94-29.86h5L648.19,526l8.33-23.18h4.88l8.1,22.92,7.93-22.92h5Zm-3.25-1.17h2.44L680.77,504h-2.51L670,528H669L660.57,504h-3.23l-8.69,24.17h-.94L639.14,504h-2.52l10.09,27.52h2.67l9-24.74h.94Z" transform="translate(-292.24 -462.07)" style="fill:#004680"/><path d="M697.05,502.58c-8.51,0-12.8,7.43-12.8,15.2s4,15.2,12.57,15.2c6.91,0,11.2-3.14,13-10h-3.6a8.55,8.55,0,0,1-8.29,6.86c-7,0-9.83-5.14-9.94-11.26h22.17C710.14,509.61,706.65,502.58,697.05,502.58Zm-9,12.86c.46-5,3.43-9.71,9-9.71,5.94,0,8.91,4.17,9.31,9.71Z" transform="translate(-292.24 -462.07)" style="fill:#004680"/><path d="M696.82,533.57c-9.09,0-13.16-7.93-13.16-15.79,0-7.6,4.19-15.79,13.39-15.79,8.82,0,13.67,5.89,13.67,16.59v.59H688.57c.18,3.45,1.55,10.09,9.34,10.09a7.93,7.93,0,0,0,7.71-6.4l.1-.46h4.83l-.19.73C708.55,530.15,704.12,533.57,696.82,533.57Zm.23-30.4c-8.39,0-12.22,7.58-12.22,14.62,0,10.79,6.46,14.62,12,14.62,6.52,0,10.42-2.81,12.2-8.83h-2.37a9.07,9.07,0,0,1-8.75,6.86c-6.55,0-10.39-4.31-10.53-11.83V518h22.18c-.12-6.9-2.45-14.83-12.5-14.83Zm10,12.86H687.44l.06-.64c.43-4.73,3.2-10.25,9.61-10.25,5.73,0,9.43,3.84,9.9,10.26Zm-18.32-1.17h17c-.6-5.44-3.73-8.54-8.67-8.54C691.77,506.31,689.3,510.77,688.74,514.85Z" transform="translate(-292.24 -462.07)" style="fill:#004680"/><path d="M727.74,502.58a7.38,7.38,0,0,0-6.46,5.09h-.11l-.17-4.23h-3.54c.11,1.94.34,4.23.29,6.46v22.23h3.43V514.87c.11-5.49,2.8-9.14,7.89-9.14.69,0,1.43.17,2.11.23v-3.31C730,502.58,728.89,502.52,727.74,502.58Z" transform="translate(-292.24 -462.07)" style="fill:#004680"/><path d="M721.76,532.71h-4.6V509.89c0-1.67-.08-3.41-.19-4.95,0-.51-.07-1-.1-1.48l0-.62h4.73l.11,2.73a7.74,7.74,0,0,1,6-3.59c1.17-.06,2.35,0,3.48.06l.56,0v4.51l-.63-.05c-.28,0-.57-.07-.86-.11a8.75,8.75,0,0,0-1.2-.12c-4.53,0-7.19,3.12-7.3,8.57Zm-3.43-1.17h2.26V514.87c.13-6.1,3.29-9.73,8.47-9.73a9.64,9.64,0,0,1,1.37.13l.16,0v-2.1c-.93,0-1.89-.08-2.81,0h0a6.81,6.81,0,0,0-5.93,4.7l-.14.39h-1.09l-.17-4.23h-2.36l.06.84c.11,1.56.23,3.33.19,5Z" transform="translate(-292.24 -462.07)" style="fill:#004680"/></svg>