<?xml version="1.0" standalone="no"?>
<!DOCTYPE svg PUBLIC "-//W3C//DTD SVG 20010904//EN"
 "http://www.w3.org/TR/2001/REC-SVG-20010904/DTD/svg10.dtd">
<svg version="1.0" xmlns="http://www.w3.org/2000/svg"
 width="500.000000pt" height="500.000000pt" viewBox="0 0 500.000000 500.000000"
 preserveAspectRatio="xMidYMid meet">

<g transform="translate(0.000000,500.000000) scale(0.100000,-0.100000)"
fill="#000000" stroke="none">
<path d="M2175 4354 c-121 -19 -321 -74 -426 -118 -120 -51 -286 -145 -382
-217 -45 -34 -136 -116 -202 -183 -289 -290 -446 -639 -486 -1081 -37 -418 75
-857 303 -1180 78 -111 273 -309 391 -397 440 -327 986 -436 1522 -304 401 99
802 390 1045 761 238 364 333 813 264 1250 -7 50 -17 103 -22 119 l-8 29 -34
-45 c-19 -26 -56 -70 -81 -99 -25 -30 -206 -244 -402 -476 l-357 -422 0 -140
c0 -133 -1 -141 -24 -168 -24 -27 -27 -28 -148 -31 -80 -2 -147 2 -192 11
l-69 14 -139 -69 c-76 -37 -158 -73 -181 -80 -61 -16 -114 -3 -154 37 -29 29
-33 39 -33 89 0 36 16 110 44 208 112 393 112 395 91 431 -34 58 -464 742
-479 762 -14 18 -15 -49 -16 -668 l0 -688 -24 -23 c-19 -20 -38 -25 -111 -31
-48 -4 -124 -5 -169 -1 -70 5 -84 10 -103 32 l-23 25 0 1005 0 1005 25 24 c27
28 27 28 274 25 94 -1 142 -5 162 -15 17 -9 56 -59 101 -130 40 -63 196 -309
347 -545 151 -237 277 -433 281 -435 5 -3 27 18 50 45 l43 51 1 495 1 496 28
24 c27 23 34 24 178 24 151 0 205 -10 225 -41 5 -8 11 -125 14 -261 l5 -247
145 167 c80 91 190 217 244 280 l99 113 -39 41 c-21 22 -79 74 -129 116 -266
223 -590 369 -928 417 -128 18 -402 18 -522 -1z"/>
<path d="M4125 4006 c-28 -12 -190 -187 -190 -206 0 -10 405 -370 416 -370 4
0 48 45 98 101 81 90 91 105 91 140 0 25 -7 46 -22 63 -47 50 -301 268 -325
277 -30 11 -31 11 -68 -5z"/>
<path d="M3787 3613 c-42 -49 -169 -198 -283 -333 -115 -135 -337 -396 -494
-580 -157 -184 -310 -364 -341 -400 l-54 -65 -74 -272 c-79 -291 -81 -318 -34
-329 22 -6 76 18 289 124 l263 132 138 158 c76 87 187 216 248 287 284 336
579 682 684 804 160 183 150 167 115 200 -16 15 -108 103 -206 194 l-176 167
-75 -87z"/>
</g>
</svg>
